/usr/bin/start-video-rec.sh: line 93: kill: (899) - No such process
ffmpeg version 2.8.17-0ubuntu0.1 Copyright (c) 2000-2020 the FFmpeg developers
  built with gcc 5.4.0 (Ubuntu 5.4.0-6ubuntu1~16.04.12) 20160609
  configuration: --prefix=/usr --extra-version=0ubuntu0.1 --build-suffix=-ffmpeg --toolchain=hardened --libdir=/usr/lib/x86_64-linux-gnu --incdir=/usr/include/x86_64-linux-gnu --cc=cc --cxx=g++ --enable-gpl --enable-shared --disable-stripping --disable-decoder=libopenjpeg --disable-decoder=libschroedinger --enable-avresample --enable-avisynth --enable-gnutls --enable-ladspa --enable-libass --enable-libbluray --enable-libbs2b --enable-libcaca --enable-libcdio --enable-libflite --enable-libfontconfig --enable-libfreetype --enable-libfribidi --enable-libgme --enable-libgsm --enable-libmodplug --enable-libmp3lame --enable-libopenjpeg --enable-libopus --enable-libpulse --enable-librtmp --enable-libschroedinger --enable-libshine --enable-libsnappy --enable-libsoxr --enable-libspeex --enable-libssh --enable-libtheora --enable-libtwolame --enable-libvorbis --enable-libvpx --enable-libwavpack --enable-libwebp --enable-libx265 --enable-libxvid --enable-libzvbi --enable-openal --enable-opengl --enable-x11grab --enable-libdc1394 --enable-libiec61883 --enable-libzmq --enable-frei0r --enable-libx264 --enable-libopencv
  libavutil      54. 31.100 / 54. 31.100
  libavcodec     56. 60.100 / 56. 60.100
  libavformat    56. 40.101 / 56. 40.101
  libavdevice    56.  4.100 / 56.  4.100
  libavfilter     5. 40.101 /  5. 40.101
  libavresample   2.  1.  0 /  2.  1.  0
  libswscale      3.  1.101 /  3.  1.101
  libswresample   1.  2.101 /  1.  2.101
  libpostproc    53.  3.100 / 53.  3.100
Input #0, matroska,webm, from '/home/seluser/videos/vid_chrome_or_firefox_40002.mkv':
  Metadata:
    ENCODER         : Lavf56.40.101
  Duration: 00:00:43.00, start: 0.000000, bitrate: 211 kb/s
    Stream #0:0: Video: h264 (Constrained Baseline), yuv420p, 1366x768, SAR 1:1 DAR 683:384, 10 fps, 10 tbr, 1k tbn, 20 tbc (default)
    Metadata:
      ENCODER         : Lavc56.60.100 libx264
      DURATION        : 00:00:43.000000000
[libx264 @ 0x17677c0] using SAR=1/1
[libx264 @ 0x17677c0] using cpu capabilities: MMX2 SSE2Fast SSSE3 SSE4.2 AVX FMA3 AVX2 LZCNT BMI2
[libx264 @ 0x17677c0] profile Constrained Baseline, level 3.2
[libx264 @ 0x17677c0] 264 - core 148 r2643 5c65704 - H.264/MPEG-4 AVC codec - Copyleft 2003-2015 - http://www.videolan.org/x264.html - options: cabac=0 ref=1 deblock=0:0:0 analyse=0:0 me=dia subme=0 psy=1 psy_rd=1.00:0.00 mixed_ref=0 me_range=16 chroma_me=1 trellis=0 8x8dct=0 cqm=0 deadzone=21,11 fast_pskip=1 chroma_qp_offset=0 threads=3 lookahead_threads=1 sliced_threads=0 nr=0 decimate=1 interlaced=0 bluray_compat=0 constrained_intra=0 bframes=0 weightp=0 keyint=250 keyint_min=10 scenecut=0 intra_refresh=0 rc=crf mbtree=0 crf=23.0 qcomp=0.60 qpmin=0 qpmax=69 qpstep=4 ip_ratio=1.40 aq=0
Output #0, mp4, to '/home/seluser/videos/vid_chrome_or_firefox_40002.mp4':
  Metadata:
    encoder         : Lavf56.40.101
    Stream #0:0: Video: h264 (libx264) ([33][0][0][0] / 0x0021), yuv420p, 1366x768 [SAR 1:1 DAR 683:384], q=-1--1, 10 fps, 10240 tbn, 10 tbc (default)
    Metadata:
      DURATION        : 00:00:43.000000000
      encoder         : Lavc56.60.100 libx264
Stream mapping:
  Stream #0:0 -> #0:0 (h264 (native) -> h264 (libx264))
Press [q] to stop, [?] for help
frame=   78 fps=0.0 q=9.0 size=      89kB time=00:00:07.40 bitrate=  98.2kbits/s    
frame=  122 fps=118 q=15.0 size=     492kB time=00:00:11.80 bitrate= 341.5kbits/s    
frame=  143 fps= 93 q=9.0 size=     610kB time=00:00:13.90 bitrate= 359.2kbits/s    
frame=  184 fps= 89 q=9.0 size=     663kB time=00:00:18.00 bitrate= 301.9kbits/s    
frame=  211 fps= 82 q=9.0 size=     665kB time=00:00:20.70 bitrate= 263.0kbits/s    
frame=  249 fps= 80 q=9.0 size=     666kB time=00:00:24.50 bitrate= 222.7kbits/s    
frame=  319 fps= 88 q=15.0 size=     936kB time=00:00:31.50 bitrate= 243.4kbits/s    
frame=  349 fps= 85 q=9.0 size=    1069kB time=00:00:34.50 bitrate= 253.9kbits/s    
frame=  381 fps= 82 q=9.0 size=    1071kB time=00:00:37.70 bitrate= 232.8kbits/s    
frame=  430 fps= 85 q=-1.0 Lsize=    1118kB time=00:00:43.00 bitrate= 212.9kbits/s    
video:1115kB audio:0kB subtitle:0kB other streams:0kB global headers:0kB muxing overhead: 0.223942%
[libx264 @ 0x17677c0] frame I:2     Avg QP:13.00  size: 69217
[libx264 @ 0x17677c0] frame P:428   Avg QP:10.21  size:  2343
[libx264 @ 0x17677c0] mb I  I16..4: 100.0%  0.0%  0.0%
[libx264 @ 0x17677c0] mb P  I16..4:  1.9%  0.0%  0.0%  P16..4:  2.3%  0.0%  0.0%  0.0%  0.0%    skip:95.8%
[libx264 @ 0x17677c0] coded y,uvDC,uvAC intra: 14.8% 9.5% 8.8% inter: 0.9% 1.1% 0.6%
[libx264 @ 0x17677c0] i16 v,h,dc,p: 71% 27%  1%  1%
[libx264 @ 0x17677c0] i8c dc,h,v,p: 79% 17%  3%  1%
[libx264 @ 0x17677c0] kb/s:212.32
